<?xml version="1.0" encoding="utf-8"?>
<!-- Generator: Adobe Illustrator 21.1.0, SVG Export Plug-In . SVG Version: 6.00 Build 0)  -->
<svg version="1.1"
	 id="Layer_1" xmlns:cc="http://creativecommons.org/ns#" xmlns:dc="http://purl.org/dc/elements/1.1/" xmlns:inkscape="http://www.inkscape.org/namespaces/inkscape" xmlns:rdf="http://www.w3.org/1999/02/22-rdf-syntax-ns#" xmlns:sodipodi="http://sodipodi.sourceforge.net/DTD/sodipodi-0.dtd" xmlns:svg="http://www.w3.org/2000/svg"
	 xmlns="http://www.w3.org/2000/svg" xmlns:xlink="http://www.w3.org/1999/xlink" x="0px" y="0px" viewBox="0 0 44 44"
	 enable-background="new 0 0 44 44" xml:space="preserve">
<g transform="translate(0,-992.3622)">
	<path d="M18.9,992.4l-1.5,5.3c-1.4,0.4-2.7,0.9-3.9,1.6l-4.8-2.7l-4.3,4.3l2.7,4.8c-0.7,1.2-1.2,2.5-1.6,3.9l-5.3,1.5v6.1l5.3,1.5
		c0.4,1.4,0.9,2.7,1.6,3.9l-2.7,4.8l4.3,4.3l4.8-2.7c1.2,0.7,2.5,1.2,3.9,1.6l1.5,5.3h6.1l1.5-5.3c1.4-0.4,2.7-0.9,3.9-1.6l4.8,2.7
		l4.3-4.3l-2.7-4.8c0.7-1.2,1.2-2.5,1.6-3.9l5.3-1.5v-6.1l-5.3-1.5c-0.4-1.4-0.9-2.7-1.6-3.9l2.7-4.8l-4.3-4.3l-4.8,2.7
		c-1.2-0.7-2.5-1.2-3.9-1.6l-1.5-5.3H18.9z M22,1004.4c5.5,0,10,4.5,10,10s-4.5,10-10,10s-10-4.5-10-10S16.5,1004.4,22,1004.4z
		 M22,1010.4c-2.2,0-4,1.8-4,4s1.8,4,4,4s4-1.8,4-4S24.2,1010.4,22,1010.4z"/>
</g>
</svg>
