<svg xmlns="http://www.w3.org/2000/svg" viewBox="0 0 106.5 34.46"><defs><style>.cls-1{fill:#1fe89f;}</style></defs><title>Asset 3</title><g id="Layer_2" data-name="Layer 2"><g id="Layer_1-2" data-name="Layer 1"><path class="cls-1" d="M82,34.46,106.5,0H91.74L77.45,21.23,75,0H57.09l-16,22.54L40.36,0H24.48L0,34.46H14.26L28.55,13.23,31,34.46H46.88L61.17,13.23l2.48,21.23m6.86-.28H67.83l-3-25.65a.35.35,0,0,0-.38-.26h-.13a.41.41,0,0,0-.34.16L46.65,34.17H35.15l-3-25.65a.35.35,0,0,0-.38-.26h-.13a.41.41,0,0,0-.34.16L14,34.17H4.42L28.49.28H40l.88,27.37a.32.32,0,0,0,.29.27h.09a.41.41,0,0,0,.33-.15L61.11.28H67l4.37,33.89Zm11.3,0H74.39L70,.28h4.6l3,25.65a.35.35,0,0,0,.38.26h.13a.41.41,0,0,0,.34-.16L95.79.28h10.08Z"/></g></g></svg>