<?xml version="1.0" encoding="utf-8"?>
<!-- Generator: Adobe Illustrator 21.1.0, SVG Export Plug-In . SVG Version: 6.00 Build 0)  -->
<svg version="1.1" id="Layer_1" xmlns="http://www.w3.org/2000/svg" xmlns:xlink="http://www.w3.org/1999/xlink" x="0px" y="0px"
	 viewBox="0 0 100 100" enable-background="new 0 0 100 100" xml:space="preserve">
<title>se1</title>
<path d="M42,84.4c-23.3,0.1-42.3-18.7-42.4-42S18.3,0.1,41.6,0S83.9,18.7,84,42c0,0.1,0,0.1,0,0.2C84,65.4,65.2,84.3,42,84.4z
	 M42,12.3C25.5,12.2,12,25.5,11.9,42c-0.1,16.5,13.2,30,29.7,30.1c16.5,0.1,30-13.2,30.1-29.7c0-0.1,0-0.1,0-0.2
	C71.7,25.7,58.4,12.4,42,12.3z"/>
<polygon points="91.3,100 64.7,73.6 73.4,64.9 100,91.3 "/>
</svg>
